<svg width="49" height="48" viewBox="0 0 49 48" fill="none" xmlns="http://www.w3.org/2000/svg">
<rect x="0.666656" width="48" height="48" rx="8" fill="#FF0069"/>
<path d="M24.6667 14C19.1567 14 14.6667 18.49 14.6667 24C14.6667 29.51 19.1567 34 24.6667 34C30.1767 34 34.6667 29.51 34.6667 24C34.6667 18.49 30.1767 14 24.6667 14ZM29.0167 27.57C28.8767 27.81 28.6267 27.94 28.3667 27.94C28.2367 27.94 28.1067 27.91 27.9867 27.83L24.8867 25.98C24.1167 25.52 23.5467 24.51 23.5467 23.62V19.52C23.5467 19.11 23.8867 18.77 24.2967 18.77C24.7067 18.77 25.0467 19.11 25.0467 19.52V23.62C25.0467 23.98 25.3467 24.51 25.6567 24.69L28.7567 26.54C29.1167 26.75 29.2367 27.21 29.0167 27.57Z" fill="white"/>
</svg>
