<svg width="49" height="48" viewBox="0 0 49 48" fill="none" xmlns="http://www.w3.org/2000/svg">
<rect x="0.333313" width="48" height="48" rx="8" fill="#FFA800"/>
<path d="M34.3333 16.85V28.74C34.3333 29.71 33.5433 30.6 32.5733 30.72L32.2633 30.76C30.6233 30.98 28.3133 31.66 26.4533 32.44C25.8033 32.71 25.0833 32.22 25.0833 31.51V17.6C25.0833 17.23 25.2933 16.89 25.6233 16.71C27.4533 15.72 30.2233 14.84 32.1033 14.68H32.1633C33.3633 14.68 34.3333 15.65 34.3333 16.85Z" fill="white"/>
<path d="M23.0433 16.71C21.2133 15.72 18.4433 14.84 16.5633 14.68H16.4933C15.2933 14.68 14.3233 15.65 14.3233 16.85V28.74C14.3233 29.71 15.1133 30.6 16.0833 30.72L16.3933 30.76C18.0333 30.98 20.3433 31.66 22.2033 32.44C22.8533 32.71 23.5733 32.22 23.5733 31.51V17.6C23.5733 17.22 23.3733 16.89 23.0433 16.71ZM17.3333 19.74H19.5833C19.9933 19.74 20.3333 20.08 20.3333 20.49C20.3333 20.91 19.9933 21.24 19.5833 21.24H17.3333C16.9233 21.24 16.5833 20.91 16.5833 20.49C16.5833 20.08 16.9233 19.74 17.3333 19.74ZM20.3333 24.24H17.3333C16.9233 24.24 16.5833 23.91 16.5833 23.49C16.5833 23.08 16.9233 22.74 17.3333 22.74H20.3333C20.7433 22.74 21.0833 23.08 21.0833 23.49C21.0833 23.91 20.7433 24.24 20.3333 24.24Z" fill="white"/>
</svg>
