<svg width="48" height="48" viewBox="0 0 48 48" fill="none" xmlns="http://www.w3.org/2000/svg">
<rect width="48" height="48" rx="8" fill="#00FF47"/>
<path d="M24.75 27.92H25.4C26.05 27.92 26.59 27.34 26.59 26.64C26.59 25.77 26.28 25.6 25.77 25.42L24.76 25.07V27.92H24.75Z" fill="white"/>
<path d="M23.97 13.9C18.45 13.92 13.98 18.41 14 23.93C14.02 29.45 18.51 33.92 24.03 33.9C29.55 33.88 34.02 29.39 34 23.87C33.98 18.35 29.49 13.89 23.97 13.9ZM26.26 24C27.04 24.27 28.09 24.85 28.09 26.64C28.09 28.18 26.88 29.42 25.4 29.42H24.75V30C24.75 30.41 24.41 30.75 24 30.75C23.59 30.75 23.25 30.41 23.25 30V29.42H22.89C21.25 29.42 19.92 28.04 19.92 26.34C19.92 25.93 20.26 25.59 20.67 25.59C21.08 25.59 21.42 25.93 21.42 26.34C21.42 27.21 22.08 27.92 22.89 27.92H23.25V24.54L21.74 24C20.96 23.73 19.91 23.15 19.91 21.36C19.91 19.82 21.12 18.58 22.6 18.58H23.25V18C23.25 17.59 23.59 17.25 24 17.25C24.41 17.25 24.75 17.59 24.75 18V18.58H25.11C26.75 18.58 28.08 19.96 28.08 21.66C28.08 22.07 27.74 22.41 27.33 22.41C26.92 22.41 26.58 22.07 26.58 21.66C26.58 20.79 25.92 20.08 25.11 20.08H24.75V23.46L26.26 24Z" fill="white"/>
<path d="M21.42 21.37C21.42 22.24 21.73 22.41 22.24 22.59L23.25 22.94V20.08H22.6C21.95 20.08 21.42 20.66 21.42 21.37Z" fill="white"/>
</svg>
