<svg width="105" height="64" viewBox="0 0 105 64" fill="none" xmlns="http://www.w3.org/2000/svg">
<rect y="6.04395" width="2.83784" height="2.80881" rx="1.34409" fill="white"/>
<rect x="11.3516" y="6.04395" width="2.83784" height="2.80881" rx="1.34409" fill="white"/>
<rect x="22.7026" y="6.04395" width="2.83784" height="2.80881" rx="1.34409" fill="white"/>
<rect x="34.0542" y="6.04395" width="2.83784" height="2.80881" rx="1.34409" fill="white"/>
<rect x="45.4053" y="6.04395" width="2.83784" height="2.80881" rx="1.34409" fill="white"/>
<rect x="56.7568" y="6.04395" width="2.83784" height="2.80881" rx="1.34409" fill="white"/>
<rect x="68.1084" y="6.04395" width="2.83784" height="2.80881" rx="1.34409" fill="white"/>
<rect x="79.4595" y="6.04395" width="2.83784" height="2.80881" rx="1.34409" fill="white"/>
<rect x="90.811" y="6.04395" width="2.83784" height="2.80881" rx="1.34409" fill="white"/>
<rect x="102.162" y="6.04395" width="2.83784" height="2.80881" rx="1.34409" fill="white"/>
<rect y="17.2792" width="2.83784" height="2.80881" rx="1.34409" fill="white"/>
<rect x="11.3516" y="17.2792" width="2.83784" height="2.80881" rx="1.34409" fill="white"/>
<rect x="22.7026" y="17.2792" width="2.83784" height="2.80881" rx="1.34409" fill="white"/>
<rect x="34.0542" y="17.2792" width="2.83784" height="2.80881" rx="1.34409" fill="white"/>
<rect x="45.4053" y="17.2792" width="2.83784" height="2.80881" rx="1.34409" fill="white"/>
<rect x="56.7568" y="17.2792" width="2.83784" height="2.80881" rx="1.34409" fill="white"/>
<rect x="68.1084" y="17.2792" width="2.83784" height="2.80881" rx="1.34409" fill="white"/>
<rect x="79.4595" y="17.2792" width="2.83784" height="2.80881" rx="1.34409" fill="white"/>
<rect x="90.811" y="17.2792" width="2.83784" height="2.80881" rx="1.34409" fill="white"/>
<rect x="102.162" y="17.2792" width="2.83784" height="2.80881" rx="1.34409" fill="white"/>
<rect y="28.5144" width="2.83784" height="2.80881" rx="1.34409" fill="white"/>
<rect y="39.3505" width="2.83784" height="2.80881" rx="1.34409" fill="white"/>
<rect y="50.1864" width="2.83784" height="2.80881" rx="1.34409" fill="white"/>
<rect y="61.0222" width="2.83784" height="2.80881" rx="1.34409" fill="white"/>
<rect x="11.3516" y="28.5144" width="2.83784" height="2.80881" rx="1.34409" fill="white"/>
<rect x="11.3516" y="39.3505" width="2.83784" height="2.80881" rx="1.34409" fill="white"/>
<rect x="11.3516" y="50.1864" width="2.83784" height="2.80881" rx="1.34409" fill="white"/>
<rect x="11.3516" y="61.0222" width="2.83784" height="2.80881" rx="1.34409" fill="white"/>
<rect x="22.7026" y="28.5144" width="2.83784" height="2.80881" rx="1.34409" fill="white"/>
<rect x="22.7026" y="39.3505" width="2.83784" height="2.80881" rx="1.34409" fill="white"/>
<rect x="22.7026" y="50.1864" width="2.83784" height="2.80881" rx="1.34409" fill="white"/>
<rect x="22.7026" y="61.0222" width="2.83784" height="2.80881" rx="1.34409" fill="white"/>
<rect x="34.0542" y="28.5144" width="2.83784" height="2.80881" rx="1.34409" fill="white"/>
<rect x="34.0542" y="39.3505" width="2.83784" height="2.80881" rx="1.34409" fill="white"/>
<rect x="34.0542" y="50.1864" width="2.83784" height="2.80881" rx="1.34409" fill="white"/>
<rect x="34.0542" y="61.0222" width="2.83784" height="2.80881" rx="1.34409" fill="white"/>
<rect x="45.4053" y="28.5144" width="2.83784" height="2.80881" rx="1.34409" fill="white"/>
<rect x="45.4053" y="39.3505" width="2.83784" height="2.80881" rx="1.34409" fill="white"/>
<rect x="45.4053" y="50.1864" width="2.83784" height="2.80881" rx="1.34409" fill="white"/>
<rect x="45.4053" y="61.0222" width="2.83784" height="2.80881" rx="1.34409" fill="white"/>
<rect x="56.7568" y="28.5144" width="2.83784" height="2.80881" rx="1.34409" fill="white"/>
<rect x="56.7568" y="39.3505" width="2.83784" height="2.80881" rx="1.34409" fill="white"/>
<rect x="56.7568" y="50.1864" width="2.83784" height="2.80881" rx="1.34409" fill="white"/>
<rect x="56.7568" y="61.0222" width="2.83784" height="2.80881" rx="1.34409" fill="white"/>
<rect x="68.1084" y="28.5144" width="2.83784" height="2.80881" rx="1.34409" fill="white"/>
<rect x="68.1084" y="39.3505" width="2.83784" height="2.80881" rx="1.34409" fill="white"/>
<rect x="68.1084" y="50.1864" width="2.83784" height="2.80881" rx="1.34409" fill="white"/>
<rect x="68.1084" y="61.0222" width="2.83784" height="2.80881" rx="1.34409" fill="white"/>
<rect x="79.4595" y="28.5144" width="2.83784" height="2.80881" rx="1.34409" fill="white"/>
<rect x="79.4595" y="39.3505" width="2.83784" height="2.80881" rx="1.34409" fill="white"/>
<rect x="79.4595" y="50.1864" width="2.83784" height="2.80881" rx="1.34409" fill="white"/>
<rect x="79.4595" y="61.0222" width="2.83784" height="2.80881" rx="1.34409" fill="white"/>
<rect x="90.811" y="28.5144" width="2.83784" height="2.80881" rx="1.34409" fill="white"/>
<rect x="90.811" y="39.3505" width="2.83784" height="2.80881" rx="1.34409" fill="white"/>
<rect x="90.811" y="50.1864" width="2.83784" height="2.80881" rx="1.34409" fill="white"/>
<rect x="90.811" y="61.0222" width="2.83784" height="2.80881" rx="1.34409" fill="white"/>
<rect x="102.162" y="28.5144" width="2.83784" height="2.80881" rx="1.34409" fill="white"/>
<rect x="102.162" y="39.3505" width="2.83784" height="2.80881" rx="1.34409" fill="white"/>
<rect x="102.162" y="50.1864" width="2.83784" height="2.80881" rx="1.34409" fill="white"/>
<rect x="102.162" y="61.0222" width="2.83784" height="2.80881" rx="1.34409" fill="white"/>
</svg>
